<svg width="100%" viewBox="0 0 400 400" xmlns="http://www.w3.org/2000/svg">
<defs>
<clipPath id="ic"><rect x="0" y="0" width="400" height="400" rx="64"/></clipPath>
</defs>
<g clip-path="url(#ic)">
<rect x="0" y="0" width="400" height="400" fill="#0a0a0a"/>
<path d="M90 88H310V148H234V298H166V148H90Z" fill="#ffffff"/>
<g stroke="#000000" stroke-opacity="0.08" stroke-width="1.5">
<line x1="90" y1="96" x2="310" y2="96"/>
<line x1="90" y1="102" x2="310" y2="102"/>
<line x1="90" y1="108" x2="310" y2="108"/>
<line x1="90" y1="114" x2="310" y2="114"/>
<line x1="90" y1="120" x2="310" y2="120"/>
<line x1="90" y1="126" x2="310" y2="126"/>
<line x1="90" y1="132" x2="310" y2="132"/>
<line x1="90" y1="138" x2="310" y2="138"/>
<line x1="90" y1="144" x2="310" y2="144"/>
<line x1="166" y1="156" x2="234" y2="156"/>
<line x1="166" y1="162" x2="234" y2="162"/>
<line x1="166" y1="168" x2="234" y2="168"/>
<line x1="166" y1="174" x2="234" y2="174"/>
<line x1="166" y1="180" x2="234" y2="180"/>
<line x1="166" y1="186" x2="234" y2="186"/>
<line x1="166" y1="192" x2="234" y2="192"/>
<line x1="166" y1="198" x2="234" y2="198"/>
<line x1="166" y1="204" x2="234" y2="204"/>
<line x1="166" y1="210" x2="234" y2="210"/>
<line x1="166" y1="216" x2="234" y2="216"/>
<line x1="166" y1="222" x2="234" y2="222"/>
<line x1="166" y1="228" x2="234" y2="228"/>
<line x1="166" y1="234" x2="234" y2="234"/>
<line x1="166" y1="240" x2="234" y2="240"/>
<line x1="166" y1="246" x2="234" y2="246"/>
<line x1="166" y1="252" x2="234" y2="252"/>
<line x1="166" y1="258" x2="234" y2="258"/>
<line x1="166" y1="264" x2="234" y2="264"/>
<line x1="166" y1="270" x2="234" y2="270"/>
<line x1="166" y1="276" x2="234" y2="276"/>
<line x1="166" y1="282" x2="234" y2="282"/>
<line x1="166" y1="288" x2="234" y2="288"/>
</g>
</g>
</svg>
